<svg xmlns="http://www.w3.org/2000/svg" viewBox="0 0 1454 1478" width="1454" height="1478">
	<style>
		tspan { white-space:pre }
		.shp0 { fill: #7287ae } 
		.shp1 { fill: #ffffff } 
	</style>
	<g id="Group 1">
		<g id="Background">
			<path id="Shape" class="shp0" d="M1447 1391.24C1447 1391.24 1196.59 1201.88 843 1262.22C549.8 1312.25 324.52 1544.61 0 1354.24L0 0L1439 0L1447 1391.24Z" />
			<path id="Shape" class="shp1" d="M1449.59 1009.8C1447.16 1009.8 1445.19 1007.83 1445.19 1005.4C1445.19 1002.97 1447.16 1001 1449.59 1001C1452.03 1001 1454 1002.97 1454 1005.4C1454 1007.83 1452.03 1009.8 1449.59 1009.8ZM1449.59 1052.35C1447.16 1052.35 1445.19 1050.38 1445.19 1047.95C1445.19 1045.52 1447.16 1043.55 1449.59 1043.55C1452.03 1043.55 1454 1045.52 1454 1047.95C1454 1050.38 1452.03 1052.35 1449.59 1052.35ZM1449.59 1094.9C1447.16 1094.9 1445.19 1092.93 1445.19 1090.5C1445.19 1088.07 1447.16 1086.1 1449.59 1086.1C1452.03 1086.1 1454 1088.07 1454 1090.5C1454 1092.93 1452.03 1094.9 1449.59 1094.9ZM1449.59 1137.45C1447.16 1137.45 1445.19 1135.48 1445.19 1133.05C1445.19 1130.62 1447.16 1128.65 1449.59 1128.65C1452.03 1128.65 1454 1130.62 1454 1133.05C1454 1135.48 1452.03 1137.45 1449.59 1137.45ZM1449.59 1180C1447.16 1180 1445.19 1178.03 1445.19 1175.6C1445.19 1173.17 1447.16 1171.21 1449.59 1171.21C1452.03 1171.21 1454 1173.17 1454 1175.6C1454 1178.03 1452.03 1180 1449.59 1180ZM1417.2 1009.8C1414.76 1009.8 1412.79 1007.83 1412.79 1005.4C1412.79 1002.97 1414.76 1001 1417.2 1001C1419.63 1001 1421.6 1002.97 1421.6 1005.4C1421.6 1007.83 1419.63 1009.8 1417.2 1009.8ZM1417.2 1052.35C1414.76 1052.35 1412.79 1050.38 1412.79 1047.95C1412.79 1045.52 1414.76 1043.55 1417.2 1043.55C1419.63 1043.55 1421.6 1045.52 1421.6 1047.95C1421.6 1050.38 1419.63 1052.35 1417.2 1052.35ZM1417.2 1094.9C1414.76 1094.9 1412.79 1092.93 1412.79 1090.5C1412.79 1088.07 1414.76 1086.1 1417.2 1086.1C1419.63 1086.1 1421.6 1088.07 1421.6 1090.5C1421.6 1092.93 1419.63 1094.9 1417.2 1094.9ZM1417.2 1137.45C1414.76 1137.45 1412.79 1135.48 1412.79 1133.05C1412.79 1130.62 1414.76 1128.65 1417.2 1128.65C1419.63 1128.65 1421.6 1130.62 1421.6 1133.05C1421.6 1135.48 1419.63 1137.45 1417.2 1137.45ZM1417.2 1180C1414.76 1180 1412.79 1178.03 1412.79 1175.6C1412.79 1173.17 1414.76 1171.21 1417.2 1171.21C1419.63 1171.21 1421.6 1173.17 1421.6 1175.6C1421.6 1178.03 1419.63 1180 1417.2 1180ZM1384.8 1009.8C1382.37 1009.8 1380.4 1007.83 1380.4 1005.4C1380.4 1002.97 1382.37 1001 1384.8 1001C1387.23 1001 1389.21 1002.97 1389.21 1005.4C1389.21 1007.83 1387.23 1009.8 1384.8 1009.8ZM1384.8 1052.35C1382.37 1052.35 1380.4 1050.38 1380.4 1047.95C1380.4 1045.52 1382.37 1043.55 1384.8 1043.55C1387.23 1043.55 1389.21 1045.52 1389.21 1047.95C1389.21 1050.38 1387.23 1052.35 1384.8 1052.35ZM1384.8 1094.9C1382.37 1094.9 1380.4 1092.93 1380.4 1090.5C1380.4 1088.07 1382.37 1086.1 1384.8 1086.1C1387.23 1086.1 1389.21 1088.07 1389.21 1090.5C1389.21 1092.93 1387.23 1094.9 1384.8 1094.9ZM1384.8 1137.45C1382.37 1137.45 1380.4 1135.48 1380.4 1133.05C1380.4 1130.62 1382.37 1128.65 1384.8 1128.65C1387.23 1128.65 1389.21 1130.62 1389.21 1133.05C1389.21 1135.48 1387.23 1137.45 1384.8 1137.45ZM1384.8 1180C1382.37 1180 1380.4 1178.03 1380.4 1175.6C1380.4 1173.17 1382.37 1171.21 1384.8 1171.21C1387.23 1171.21 1389.21 1173.17 1389.21 1175.6C1389.21 1178.03 1387.23 1180 1384.8 1180ZM1352.41 1009.8C1349.97 1009.8 1348 1007.83 1348 1005.4C1348 1002.97 1349.97 1001 1352.41 1001C1354.84 1001 1356.81 1002.97 1356.81 1005.4C1356.81 1007.83 1354.84 1009.8 1352.41 1009.8ZM1352.41 1052.35C1349.97 1052.35 1348 1050.38 1348 1047.95C1348 1045.52 1349.97 1043.55 1352.41 1043.55C1354.84 1043.55 1356.81 1045.52 1356.81 1047.95C1356.81 1050.38 1354.84 1052.35 1352.41 1052.35ZM1352.41 1094.9C1349.97 1094.9 1348 1092.93 1348 1090.5C1348 1088.07 1349.97 1086.1 1352.41 1086.1C1354.84 1086.1 1356.81 1088.07 1356.81 1090.5C1356.81 1092.93 1354.84 1094.9 1352.41 1094.9ZM1352.41 1137.45C1349.97 1137.45 1348 1135.48 1348 1133.05C1348 1130.62 1349.97 1128.65 1352.41 1128.65C1354.84 1128.65 1356.81 1130.62 1356.81 1133.05C1356.81 1135.48 1354.84 1137.45 1352.41 1137.45ZM1352.41 1180C1349.97 1180 1348 1178.03 1348 1175.6C1348 1173.17 1349.97 1171.21 1352.41 1171.21C1354.84 1171.21 1356.81 1173.17 1356.81 1175.6C1356.81 1178.03 1354.84 1180 1352.41 1180Z" />
			<path id="Shape" class="shp1" d="M323.21 1473.59C323.21 1471.16 325.17 1469.19 327.6 1469.19C330.03 1469.19 332 1471.16 332 1473.59C332 1476.03 330.03 1478 327.6 1478C325.17 1478 323.21 1476.03 323.21 1473.59ZM280.65 1473.59C280.65 1471.16 282.62 1469.19 285.05 1469.19C287.48 1469.19 289.45 1471.16 289.45 1473.59C289.45 1476.03 287.48 1478 285.05 1478C282.62 1478 280.65 1476.03 280.65 1473.59ZM238.1 1473.59C238.1 1471.16 240.07 1469.19 242.5 1469.19C244.93 1469.19 246.9 1471.16 246.9 1473.59C246.9 1476.03 244.93 1478 242.5 1478C240.07 1478 238.1 1476.03 238.1 1473.59ZM195.55 1473.59C195.55 1471.16 197.52 1469.19 199.95 1469.19C202.38 1469.19 204.35 1471.16 204.35 1473.59C204.35 1476.03 202.38 1478 199.95 1478C197.52 1478 195.55 1476.03 195.55 1473.59ZM153 1473.59C153 1471.16 154.97 1469.19 157.4 1469.19C159.83 1469.19 161.79 1471.16 161.79 1473.59C161.79 1476.03 159.83 1478 157.4 1478C154.97 1478 153 1476.03 153 1473.59ZM323.21 1441.2C323.21 1438.76 325.17 1436.79 327.6 1436.79C330.03 1436.79 332 1438.76 332 1441.2C332 1443.63 330.03 1445.6 327.6 1445.6C325.17 1445.6 323.21 1443.63 323.21 1441.2ZM280.65 1441.2C280.65 1438.76 282.62 1436.79 285.05 1436.79C287.48 1436.79 289.45 1438.76 289.45 1441.2C289.45 1443.63 287.48 1445.6 285.05 1445.6C282.62 1445.6 280.65 1443.63 280.65 1441.2ZM238.1 1441.2C238.1 1438.76 240.07 1436.79 242.5 1436.79C244.93 1436.79 246.9 1438.76 246.9 1441.2C246.9 1443.63 244.93 1445.6 242.5 1445.6C240.07 1445.6 238.1 1443.63 238.1 1441.2ZM195.55 1441.2C195.55 1438.76 197.52 1436.79 199.95 1436.79C202.38 1436.79 204.35 1438.76 204.35 1441.2C204.35 1443.63 202.38 1445.6 199.95 1445.6C197.52 1445.6 195.55 1443.63 195.55 1441.2ZM153 1441.2C153 1438.76 154.97 1436.79 157.4 1436.79C159.83 1436.79 161.79 1438.76 161.79 1441.2C161.79 1443.63 159.83 1445.6 157.4 1445.6C154.97 1445.6 153 1443.63 153 1441.2ZM323.21 1408.8C323.21 1406.37 325.17 1404.4 327.6 1404.4C330.03 1404.4 332 1406.37 332 1408.8C332 1411.23 330.03 1413.21 327.6 1413.21C325.17 1413.21 323.21 1411.23 323.21 1408.8ZM280.65 1408.8C280.65 1406.37 282.62 1404.4 285.05 1404.4C287.48 1404.4 289.45 1406.37 289.45 1408.8C289.45 1411.23 287.48 1413.21 285.05 1413.21C282.62 1413.21 280.65 1411.23 280.65 1408.8ZM238.1 1408.8C238.1 1406.37 240.07 1404.4 242.5 1404.4C244.93 1404.4 246.9 1406.37 246.9 1408.8C246.9 1411.23 244.93 1413.21 242.5 1413.21C240.07 1413.21 238.1 1411.23 238.1 1408.8ZM195.55 1408.8C195.55 1406.37 197.52 1404.4 199.95 1404.4C202.38 1404.4 204.35 1406.37 204.35 1408.8C204.35 1411.23 202.38 1413.21 199.95 1413.21C197.52 1413.21 195.55 1411.23 195.55 1408.8ZM153 1408.8C153 1406.37 154.97 1404.4 157.4 1404.4C159.83 1404.4 161.79 1406.37 161.79 1408.8C161.79 1411.23 159.83 1413.21 157.4 1413.21C154.97 1413.21 153 1411.23 153 1408.8ZM323.21 1376.41C323.21 1373.97 325.17 1372 327.6 1372C330.03 1372 332 1373.97 332 1376.41C332 1378.84 330.03 1380.81 327.6 1380.81C325.17 1380.81 323.21 1378.84 323.21 1376.41ZM280.65 1376.41C280.65 1373.97 282.62 1372 285.05 1372C287.48 1372 289.45 1373.97 289.45 1376.41C289.45 1378.84 287.48 1380.81 285.05 1380.81C282.62 1380.81 280.65 1378.84 280.65 1376.41ZM238.1 1376.41C238.1 1373.97 240.07 1372 242.5 1372C244.93 1372 246.9 1373.97 246.9 1376.41C246.9 1378.84 244.93 1380.81 242.5 1380.81C240.07 1380.81 238.1 1378.84 238.1 1376.41ZM195.55 1376.41C195.55 1373.97 197.52 1372 199.95 1372C202.38 1372 204.35 1373.97 204.35 1376.41C204.35 1378.84 202.38 1380.81 199.95 1380.81C197.52 1380.81 195.55 1378.84 195.55 1376.41ZM153 1376.41C153 1373.97 154.97 1372 157.4 1372C159.83 1372 161.79 1373.97 161.79 1376.41C161.79 1378.84 159.83 1380.81 157.4 1380.81C154.97 1380.81 153 1378.84 153 1376.41Z" />
		</g>
	</g>
</svg>